Coordinates
version=1
nRows=14
nColumns=36
inDegrees=yes

Units are S.I. units (second, meters, Newtons, ...)
If the header above contains a line with 'inDegrees', this indicates whether rotational values are in degrees (yes) or radians (no).

endheader
time	pelvis_tilt	pelvis_list	pelvis_rotation	pelvis_tx	pelvis_ty	pelvis_tz	hip_flexion_r	hip_adduction_r	hip_rotation_r	knee_angle_r	knee_angle_r_beta	ankle_angle_r	subtalar_angle_r	mtp_angle_r	hip_flexion_l	hip_adduction_l	hip_rotation_l	knee_angle_l	knee_angle_l_beta	ankle_angle_l	subtalar_angle_l	mtp_angle_l	lumbar_extension	lumbar_bending	lumbar_rotation	arm_flex_r	arm_add_r	arm_rot_r	elbow_flex_r	pro_sup_r	arm_flex_l	arm_add_l	arm_rot_l	elbow_flex_l	pro_sup_l
      0.37000000	      0.50302947	     -0.40314729	      2.09276658	      0.33983177	      1.15808354	     -0.17497564	     -1.60396169	      5.27178802	     -4.67448947	      9.48195099	      0.16549126	     11.05414454	     -1.96440722	     -5.71431601	     26.54048997	     -0.83883892	     -2.55979060	     27.15883194	      0.47401104	     -7.76086766	    -12.99891531	     -5.71431601	    -12.23252564	      6.61991319	      1.20935332	     -7.56823422	    -10.24201714	    -14.63597825	     53.59120106	    110.17863794	    -10.97698933	     -2.27251706	    -10.28958528	     52.67696733	    108.62328517
      0.38000000	      0.35440507	     -0.66575075	      2.06882420	      0.35016732	      1.15655072	     -0.17481219	     -2.20218100	      5.59884716	     -4.50961344	      9.14737126	      0.15965175	     11.33966486	     -1.77429992	     -5.72842865	     26.58964200	     -0.85439196	     -2.67274079	     24.39420966	      0.42575928	     -7.40181487	    -12.03053873	     -5.72842865	    -12.07969864	      6.88984361	      1.13820491	     -7.46831302	    -10.38196833	    -14.66045347	     54.08877372	    110.16902319	    -10.93520364	     -2.21037100	    -10.30673927	     52.54653500	    108.60595880
      0.39000000	      0.52304523	     -0.81999070	      2.04597957	      0.36081943	      1.15536349	     -0.17466698	     -3.20679845	      5.81154867	     -4.44575647	      8.72182719	      0.15222460	     11.78241032	     -1.52686843	     -5.75130336	     26.22621846	     -0.80066966	     -3.07785224	     21.68564020	      0.37848582	     -6.80717336	    -10.62044815	     -5.75130336	    -12.26391475	      7.04519953	      1.13336747	     -7.42873144	    -10.49348313	    -14.69596221	     54.59884893	    110.14242574	    -10.77430895	     -2.16759271	    -10.32155408	     52.26157403	    108.57453729
      0.40000000	      0.73549270	     -1.01498925	      1.99629411	      0.37155201	      1.15409951	     -0.17446802	     -4.22422301	      6.05500913	     -4.43821417	      8.36982859	      0.14608107	     12.21744769	     -1.12808143	     -5.78646077	     25.84416939	     -0.80996496	     -3.64434252	     19.20278962	      0.33515190	     -5.98342635	     -8.99321635	     -5.78646077	    -12.49883658	      7.23775000	      1.15197028	     -7.38765433	    -10.58092873	    -14.81209628	     55.08946038	    110.09521936	    -10.63274454	     -2.16470786	    -10.24834099	     51.99909862	    108.55867580
      0.41000000	      0.70824611	     -1.20653011	      1.96798185	      0.38224621	      1.15242305	     -0.17436394	     -4.93727578	      6.28383223	     -4.36829184	      8.10842499	      0.14151871	     12.61174232	     -0.87162946	     -5.81184585	     25.70717921	     -0.73438577	     -3.96280274	     16.83301196	      0.29379148	     -5.45596146	     -7.62874009	     -5.81184585	    -12.45561616	      7.40574525	      1.13524936	     -7.36041838	    -10.67154756	    -14.84117341	     55.47716946	    110.07859949	    -10.52387434	     -2.12971243	    -10.23336483	     51.74173261	    108.54201015
      0.42000000	      0.84257346	     -1.35849977	      1.91446312	      0.39308967	      1.15088921	     -0.17421755	     -5.82323257	      6.46537646	     -4.34374479	      7.86859256	      0.13733285	     13.04211098	     -0.51494801	     -5.84517320	     25.39230452	     -0.64869617	     -4.50708082	     14.65654287	      0.25580493	     -4.72611318	     -6.04813669	     -5.84517320	    -12.60268315	      7.52759689	      1.13768807	     -7.32557667	    -10.73644046	    -14.90407158	     55.83218605	    110.05359410	    -10.38883058	     -2.12418129	    -10.19160411	     51.42447454	    108.53102640
      0.43000000	      0.89524204	     -1.50913686	      1.85714680	      0.40401327	      1.14916446	     -0.17406559	     -6.58059502	      6.63236293	     -4.36681215	      7.72065047	      0.13475077	     13.47439089	     -0.00964478	     -5.90510588	     25.20005804	     -0.56933537	     -5.18319545	     12.73487936	      0.22226557	     -3.82867807	     -4.21837515	     -5.90510588	    -12.64601442	      7.62658046	      1.16696068	     -7.34437989	    -10.76009396	    -15.01859375	     56.15713915	    110.00948218	    -10.28867902	     -2.13190304	    -10.10359534	     51.16940713	    108.55131643
      0.44000000	      0.71481978	     -1.67830182	      1.81474165	      0.41482589	      1.14708851	     -0.17402241	     -7.03748935	      6.82007150	     -4.28821728	      7.65156561	      0.13354501	     13.77765109	      0.04500356	     -5.91632025	     25.23356630	     -0.40808707	     -5.36649239	     10.90925657	      0.19040245	     -3.50714860	     -3.36753504	     -5.91632025	    -12.44536596	      7.74467976	      1.07657801	     -7.29336710	    -10.80601850	    -14.99892813	     56.33302454	    110.01446061	    -10.24915972	     -2.08473480	    -10.15752071	     50.89087860	    108.52904254
      0.45000000	      1.01807560	     -1.68895221	      1.74579535	      0.42604067	      1.14568937	     -0.17389550	     -8.09710458	      6.83979536	     -4.35985113	      7.47399247	      0.13044578	     14.28560389	      0.52182173	     -5.95902963	     24.71952073	     -0.18906677	     -6.23666699	      9.29729984	      0.16226849	     -2.62170218	     -1.43025253	     -5.95902963	    -12.76162457	      7.67350742	      1.09954655	     -7.26096908	    -10.81031581	    -15.02518341	     56.49129962	    109.99977905	    -10.03703728	     -2.09052554	    -10.17822145	     50.46900943	    108.53028514
      0.46000000	      1.03185448	     -1.75804543	      1.68886128	      0.43722850	      1.14384310	     -0.17381753	     -8.76553807	      6.90779893	     -4.44832026	      7.44768284	      0.12998659	     14.73717182	      0.90689616	     -6.00855665	     24.57137990	      0.01023707	     -6.92106178	      7.96705452	      0.13905133	     -1.88441916	      0.18937330	     -6.00855665	    -12.75631772	      7.64664774	      1.08747560	     -7.27837405	    -10.81325391	    -15.05859396	     56.57483501	    109.99216910	     -9.93341015	     -2.06996489	    -10.21851959	     50.13898051	    108.54910490
      0.47000000	      0.93036297	     -1.83915612	      1.63866335	      0.44842894	      1.14184371	     -0.17381683	     -9.28108790	      6.99304704	     -4.44044806	      7.47405885	      0.13044694	     15.05402181	      0.95771139	     -6.02328613	     24.52365712	      0.25344985	     -7.13940923	      6.78291167	      0.11838414	     -1.55622103	      0.98409854	     -6.02328613	    -12.61146834	      7.63216701	      1.02967608	     -7.27700210	    -10.80579879	    -15.04418967	     56.58106991	    109.99470584	     -9.86856495	     -2.03256424	    -10.30540855	     49.81342266	    108.52700199
      0.48000000	      1.11197411	     -1.84030683	      1.56733570	      0.45993658	      1.14022610	     -0.17374318	    -10.12518242	      6.97965801	     -4.60775022	      7.48562883	      0.13064887	     15.47707386	      1.45951661	     -6.07442625	     24.23995274	      0.48900917	     -8.05732517	      5.98283610	      0.10442019	     -0.79789780	      2.56789252	     -6.07442625	    -12.79878377	      7.51428318	      1.02351863	     -7.30013416	    -10.76286737	    -15.06860912	     56.57698805	    110.00608541	     -9.75511820	     -2.02878106	    -10.38711615	     49.46472291	    108.54820806
      0.49000000	      0.98661852	     -1.99005694	      1.60007565	      0.47125628	      1.13812943	     -0.17382780	    -10.56176916	      7.15045773	     -4.62762312	      7.61208283	      0.13285591	     15.56082116	      1.43572323	     -6.07692234	     24.39946704	      0.66856010	     -8.25005744	      5.56303993	      0.09709336	     -0.63419823	      2.63198350	     -6.07692234	    -12.65338843	      7.56683038	      0.93203712	     -7.38613561	    -10.74727244	    -15.07863485	     56.53591594	    110.00362035	     -9.75314189	     -2.02317101	    -10.41752090	     49.36679497	    108.53886784
      0.50000000	      1.11945936	     -1.90760339	      1.44845955	      0.48306549	      1.13656363	     -0.17377925	    -11.29796636	      7.02598012	     -4.65763379	      7.76129950	      0.13546023	     16.00478780	      1.56658933	     -6.09975031	     24.02682050	      0.99482822	     -8.54047980	      4.96277085	      0.08661669	     -0.17734282	      3.58560977	     -6.09975031	    -12.75526298	      7.33645690	      0.98014681	     -7.39409227	    -10.70330778	    -15.07744423	     56.32600065	    109.99678583	     -9.58604055	     -1.95243791	    -10.65384135	     48.70254733	    108.48016066
